<?xml version="1.0" encoding="UTF-8"?>
<svg id="Layer_1" xmlns="http://www.w3.org/2000/svg" version="1.1" viewBox="0 0 1920 1080">
  <!-- Generator: Adobe Illustrator 29.3.1, SVG Export Plug-In . SVG Version: 2.1.0 Build 151)  -->
  <defs>
    <style>
      .st0 {
        fill: #fff;
      }

      .st1 {
        stroke: #545454;
        stroke-miterlimit: 10;
      }
    </style>
  </defs>
  <rect class="st0" x="2255.9" y="783.8" height="18.5"/>
  <path class="st0" d="M209.5,654.3"/>
  <path d="M650.8,280.9c-32.4,29.9-58.7,73.8-67.5,117.5-13.8,68.8,18,139.8,67.5,186.3h-205.8c-46-96.9-45.8-206.9,0-303.8h205.8Z"/>
  <path d="M1067.3,320.1h-215.6c-37.8-102.8-140.1-181.2-249.9-188.6-1-5.5.2-3.9,3.1-5.5,12.6-6.8,34.2-13.7,48.3-17.8,173.2-50.1,355.1,42.4,414,211.9h.1Z"/>
  <path class="st1" d="M1067.3,545.5c-58.9,169.3-240.8,262-414,211.9-14.1-4.1-35.7-11-48.3-17.8-2.9-1.5-4.1,0-3.1-5.5,109.8-7.5,212.1-86.1,249.9-188.6h215.6,0Z"/>
  <polygon points="875.7 436.8 814.5 547 688.5 549.2 623.6 441.1 684.8 330.8 810.8 328.7 875.7 436.8"/>
  <path class="st0" d="M1100.9,932.6"/>
</svg>