<?xml version="1.0" encoding="UTF-8"?>
<svg xmlns="http://www.w3.org/2000/svg" version="1.1" viewBox="0 0 64 64">
  <defs>
    <style>
      .cls-1 {
        fill: #fff;
      }

      .cls-2 {
        fill: #050505;
      }
    </style>
  </defs>
  <!-- Generator: Adobe Illustrator 28.7.4, SVG Export Plug-In . SVG Version: 1.2.0 Build 166)  -->
  <g>
    <g id="Layer_1">
      <rect class="cls-1" x="2255.9" y="275.8" height="18.5"/>
      <path class="cls-1" d="M-686.5,146.3"/>
      <path class="cls-2" d="M23.9,18.1c-3,2.7-5.4,6.7-6.2,10.7-1.3,6.3,1.6,12.8,6.2,17H5.1c-4.2-8.8-4.1-18.8,0-27.7h18.8Z"/>
      <path class="cls-2" d="M62,21.7h-19.7c-3.5-9.4-12.8-16.6-22.8-17.2,0-.5,0-.4.3-.5,1.2-.6,3.1-1.3,4.4-1.6,15.8-4.6,32.4,3.9,37.8,19.4h0Z"/>
      <path class="cls-2" d="M62,42.3c-5.4,15.5-22,23.9-37.8,19.4-1.3-.4-3.3-1-4.4-1.6-.3,0-.4,0-.3-.5,10-.7,19.4-7.9,22.8-17.2h19.7,0Z"/>
      <polygon class="cls-2" points="44.5 32.4 38.9 42.4 27.4 42.6 21.5 32.8 27.1 22.7 38.6 22.5 44.5 32.4"/>
      <path class="cls-1" d="M204.9,424.6"/>
    </g>
  </g>
</svg>